<svg width="32" height="40" viewBox="0 0 32 40" fill="none" xmlns="http://www.w3.org/2000/svg">
  <path d="M20.8666 15.0095V7.69523H24.219V32.3047H20.9428V18.7428H20.8666C17.6666 19.8857 14.3143 17.4476 14.3143 13.9429V0H17.5905V14.019C17.5905 15.1619 18.5809 15.6952 19.3428 15.6952C19.8697 15.6952 20.2828 15.4105 20.6804 15.1365C20.7427 15.0935 20.8047 15.0508 20.8666 15.0095Z" fill="#CE2951"/>
  <path d="M10.2762 7.69531L10.3524 21.2572C13.5524 20.1144 16.8286 22.5524 16.8286 26.0572V40.0001H13.5524V26.0572C13.5524 24.9144 12.5619 24.381 11.8 24.381C11.2731 24.381 10.86 24.6657 10.4624 24.9398C10.4001 24.9827 10.3381 25.0254 10.2762 25.0667V32.381H7V7.69531H10.2762Z" fill="#CE2951"/>
</svg>
